# Blender 4.1.0
# www.blender.org
mtllib player.mtl
o Cube
v -0.141755 -0.500000 0.293927
v -0.141755 0.500000 0.293927
v -0.141755 -0.500000 -0.306073
v -0.141755 0.500000 -0.306073
v 0.141755 -0.500000 0.293927
v 0.141755 0.500000 0.293927
v 0.141755 -0.500000 -0.306073
v 0.141755 0.500000 -0.306073
v -0.046375 0.500000 0.092071
v -0.046375 0.500000 -0.104217
v 0.046375 0.500000 -0.104217
v 0.046375 0.500000 0.092071
v -0.046375 0.596030 0.092071
v -0.046375 0.596030 -0.104217
v 0.046375 0.596030 -0.104217
v 0.046375 0.596030 0.092071
v -0.102024 0.596030 0.209844
v -0.102024 0.596030 -0.221989
v 0.204034 0.596030 -0.221989
v 0.204034 0.596030 0.209844
v -0.102024 1.013402 0.209844
v -0.102024 1.013402 -0.221989
v 0.204034 1.013402 -0.221989
v 0.204034 1.013402 0.209844
v 0.141755 -0.500000 -0.004372
v -0.141755 -0.500000 -0.004372
v -0.141755 -0.500000 -0.004372
v -0.141755 -0.500000 0.293927
v 0.141755 -0.500000 -0.306073
v -0.141755 -0.500000 -0.306073
v 0.141755 -0.500000 -0.004372
v 0.141755 -0.500000 0.293927
v 0.141755 -0.500000 -0.306073
v -0.141755 -0.500000 -0.306073
v 0.141755 -0.500000 -0.004372
v -0.141755 -0.500000 -0.004372
v 0.042527 -1.500000 -0.200477
v -0.042527 -1.500000 -0.200477
v 0.042527 -1.500000 -0.109967
v -0.042527 -1.500000 -0.109967
v -0.042527 -1.500000 0.100033
v -0.042527 -1.500000 0.189523
v 0.042527 -1.500000 0.189523
v 0.042527 -1.500000 0.100033
v -0.141755 0.100000 0.293927
v 0.141755 0.100000 0.293927
v -0.141755 0.100000 -0.306073
v 0.141755 0.100000 -0.306073
v -0.085053 0.100000 0.443927
v -0.085053 0.500000 0.443927
v 0.085053 0.500000 0.443927
v 0.085053 0.100000 0.443927
v -0.085053 0.500000 -0.456073
v 0.085053 0.500000 -0.456073
v -0.085053 0.100000 -0.456073
v 0.085053 0.100000 -0.456073
v 0.028351 -0.400000 0.323927
v -0.028351 -0.400000 0.323927
v 0.028351 -0.400000 0.413927
v -0.028351 -0.400000 0.413927
v -0.028351 -0.400000 -0.336073
v 0.028351 -0.400000 -0.336073
v -0.028351 -0.400000 -0.426073
v 0.028351 -0.400000 -0.426073
vn -1.0000 -0.0000 -0.0000
vn 0.9354 -0.0000 -0.3536
vn 1.0000 -0.0000 -0.0000
vn -0.9354 -0.0000 0.3536
vn -0.0000 1.0000 -0.0000
vn -0.0000 -0.0000 1.0000
vn -0.0000 -1.0000 -0.0000
vn -0.0000 -0.0000 -1.0000
vn -0.0000 -0.1038 0.9946
vn -0.0000 -0.1050 0.9945
vn -0.0000 -0.1050 -0.9945
vn -0.9951 -0.0987 -0.0000
vn 0.9951 -0.0987 -0.0000
vn -0.0000 -0.1038 -0.9946
vn -0.0000 -0.0599 -0.9982
vn 0.9354 -0.0000 0.3536
vn -0.9354 -0.0000 -0.3536
vn -0.0000 -0.0599 0.9982
vn 0.9188 -0.1876 0.3473
vn -0.9936 -0.1127 -0.0000
vn -0.9188 -0.1876 -0.3473
vn 0.9936 -0.1127 -0.0000
vn -0.9188 -0.1876 0.3473
vn 0.9188 -0.1876 -0.3473
vt 0.047899 0.119235
vt 0.222032 0.119235
vt 0.134472 0.291540
vt 0.317830 0.119235
vt 0.274296 0.009123
vt 0.317830 0.004365
vt 0.491964 0.119235
vt 0.405390 0.291540
vt 0.004365 0.009123
vt 0.047899 0.004365
vt 0.544228 0.274296
vt 0.544228 0.222032
vt 0.653427 0.163449
vt 0.708790 0.222032
vt 0.666934 0.836778
vt 0.639088 0.782942
vt 0.666934 0.782942
vt 0.708790 0.047899
vt 0.653427 0.106482
vt 0.544228 0.047899
vt 0.599591 0.163449
vt 0.599591 0.106482
vt 0.847992 0.394734
vt 0.939140 0.486247
vt 0.813812 0.486247
vt 0.703511 0.836778
vt 0.675665 0.782942
vt 0.703511 0.782942
vt 0.342183 0.657206
vt 0.314606 0.600239
vt 0.342183 0.600239
vt 0.342183 0.722904
vt 0.314606 0.665936
vt 0.342183 0.665936
vt 0.124224 0.995635
vt 0.004365 0.870307
vt 0.124224 0.870307
vt 0.847992 0.340898
vt 0.939140 0.308596
vt 0.904960 0.340898
vt 0.813812 0.308596
vt 0.904960 0.394734
vt 0.630357 0.960592
vt 0.505029 0.782942
vt 0.630357 0.782942
vt 0.968309 0.963771
vt 0.847280 0.786121
vt 0.968309 0.786121
vt 0.838549 0.963771
vt 0.717521 0.786121
vt 0.838549 0.786121
vt 0.991457 0.738155
vt 0.871598 0.612827
vt 0.991457 0.612827
vt 0.515514 0.300271
vt 0.408549 0.591494
vt 0.350952 0.300271
vt 0.177659 0.300271
vt 0.284624 0.591508
vt 0.235256 0.591508
vt 0.314606 0.731634
vt 0.340874 0.781003
vt 0.314606 0.781003
vt 0.168928 0.300271
vt 0.061962 0.591508
vt 0.004365 0.300271
vt 0.805081 0.308596
vt 0.748167 0.604097
vt 0.717521 0.308596
vt 0.805081 0.004365
vt 0.748167 0.299866
vt 0.717521 0.004365
vt 0.314606 0.789734
vt 0.340578 0.839103
vt 0.314606 0.839103
vt 0.813812 0.004365
vt 0.870085 0.299866
vt 0.844113 0.299866
vt 0.688808 0.300271
vt 0.581842 0.591494
vt 0.524245 0.300271
vt 0.305875 0.600239
vt 0.249602 0.895739
vt 0.219302 0.600239
vt 0.350952 0.600224
vt 0.515514 0.774211
vt 0.350952 0.774211
vt 0.524245 0.600224
vt 0.688808 0.774211
vt 0.524245 0.774211
vt 0.004365 0.600239
vt 0.103103 0.716230
vt 0.004365 0.716230
vt 0.717521 0.612827
vt 0.862868 0.711565
vt 0.717521 0.777390
vt 0.675878 0.004365
vt 0.491964 0.004365
vt 0.535497 0.123993
vt 0.111834 0.600239
vt 0.210571 0.716230
vt 0.111834 0.716230
vt 0.144746 0.861576
vt 0.222032 0.004365
vt 0.265566 0.123993
vt 0.577140 0.265566
vt 0.839932 0.527890
vt 0.813812 0.494977
vt 0.839932 0.494977
vt 0.037278 0.861576
vt 0.500670 0.272338
vt 0.004365 0.123993
vt 0.039192 0.272338
vt 0.013072 0.272338
vt 0.813812 0.536620
vt 0.839932 0.569533
vt 0.813812 0.569533
vt 0.230739 0.272338
vt 0.274296 0.123993
vt 0.309123 0.272338
vt 0.283003 0.272338
vt 0.350952 0.782942
vt 0.496299 0.881679
vt 0.350952 0.947504
vt 0.047899 0.291540
vt 0.222032 0.291540
vt 0.317830 0.291540
vt 0.491964 0.291540
vt 0.639088 0.836778
vt 0.675665 0.836778
vt 0.314606 0.657206
vt 0.314606 0.722904
vt 0.004365 0.995635
vt 0.505029 0.960592
vt 0.847280 0.963771
vt 0.717521 0.963771
vt 0.871598 0.738155
vt 0.457918 0.591494
vt 0.342221 0.300271
vt 0.340874 0.731634
vt 0.111331 0.591508
vt 0.774435 0.604097
vt 0.774435 0.299866
vt 0.340578 0.789734
vt 0.900385 0.004365
vt 0.631211 0.591494
vt 0.275574 0.895739
vt 0.515514 0.600224
vt 0.688808 0.600224
vt 0.103103 0.600239
vt 0.862868 0.678652
vt 0.577140 0.004365
vt 0.535497 0.009123
vt 0.210571 0.600239
vt 0.177659 0.861576
vt 0.265566 0.009123
vt 0.675878 0.265566
vt 0.813812 0.527890
vt 0.070190 0.861576
vt 0.526790 0.272338
vt 0.839932 0.536620
vt 0.256859 0.272338
vt 0.496299 0.848767
s 0
usemtl Material.002
f 45/1/1 47/2/1 26/3/1
f 48/4/2 54/5/2 8/6/2
f 48/4/3 46/7/3 25/8/3
f 45/1/4 50/9/4 2/10/4
f 25/11/5 32/11/5 31/11/5
f 4/12/5 11/13/5 8/14/5
f 12/15/6 13/16/6 9/17/6
f 6/18/5 11/13/5 12/19/5
f 2/20/5 10/21/5 4/12/5
f 6/18/5 9/22/5 2/20/5
f 16/23/7 19/24/7 20/25/7
f 10/26/8 15/27/8 11/28/8
f 11/29/3 16/30/3 12/31/3
f 9/32/1 14/33/1 10/34/1
f 17/35/1 22/36/1 18/37/1
f 13/38/7 18/39/7 14/40/7
f 16/23/7 17/41/7 13/38/7
f 15/42/7 18/39/7 19/24/7
f 22/43/5 24/44/5 23/45/5
f 20/46/6 21/47/6 17/48/6
f 18/49/8 23/50/8 19/51/8
f 19/52/3 24/53/3 20/54/3
f 30/11/5 33/11/5 34/11/5
f 3/11/5 29/11/5 30/11/5
f 28/55/9 43/56/9 32/57/9
f 1/11/5 27/11/5 28/11/5
f 7/11/5 31/11/5 29/11/5
f 26/11/5 30/11/5 27/11/5
f 5/11/5 28/11/5 32/11/5
f 35/58/10 40/59/10 39/60/10
f 31/11/5 36/11/5 35/11/5
f 29/11/5 35/11/5 33/11/5
f 27/11/5 34/11/5 36/11/5
f 37/61/7 40/62/7 38/63/7
f 33/64/11 38/65/11 34/66/11
f 34/67/12 40/68/12 36/69/12
f 35/70/13 37/71/13 33/72/13
f 44/73/7 42/74/7 41/75/7
f 31/76/13 43/77/13 44/78/13
f 31/79/14 41/80/14 27/81/14
f 27/82/12 42/83/12 28/84/12
f 46/85/6 1/86/6 5/87/6
f 47/88/8 7/89/8 3/90/8
f 51/91/6 49/92/6 52/93/6
f 46/94/15 58/95/15 45/96/15
f 2/20/5 51/97/5 6/18/5
f 6/98/16 52/99/16 46/7/16
f 53/100/8 56/101/8 55/102/8
f 56/101/15 63/103/15 55/102/15
f 4/104/17 55/105/17 47/2/17
f 8/14/5 53/106/5 4/12/5
f 57/107/7 60/108/7 58/109/7
f 49/92/18 59/110/18 52/93/18
f 52/99/19 57/111/19 46/7/19
f 49/112/20 58/113/20 60/114/20
f 61/115/7 64/116/7 62/117/7
f 55/105/21 61/118/21 47/2/21
f 56/119/22 62/120/22 64/121/22
f 47/122/18 62/123/18 48/124/18
f 26/3/1 1/125/1 45/1/1
f 45/1/1 2/10/1 4/104/1
f 47/2/1 3/126/1 26/3/1
f 45/1/1 4/104/1 47/2/1
f 48/4/2 56/119/2 54/5/2
f 25/8/3 7/127/3 48/4/3
f 48/4/3 8/6/3 6/98/3
f 46/7/3 5/128/3 25/8/3
f 48/4/3 6/98/3 46/7/3
f 45/1/4 49/112/4 50/9/4
f 25/11/5 5/11/5 32/11/5
f 4/12/5 10/21/5 11/13/5
f 12/15/6 16/129/6 13/16/6
f 6/18/5 8/14/5 11/13/5
f 2/20/5 9/22/5 10/21/5
f 6/18/5 12/19/5 9/22/5
f 16/23/7 15/42/7 19/24/7
f 10/26/8 14/130/8 15/27/8
f 11/29/3 15/131/3 16/30/3
f 9/32/1 13/132/1 14/33/1
f 17/35/1 21/133/1 22/36/1
f 13/38/7 17/41/7 18/39/7
f 16/23/7 20/25/7 17/41/7
f 15/42/7 14/40/7 18/39/7
f 22/43/5 21/134/5 24/44/5
f 20/46/6 24/135/6 21/47/6
f 18/49/8 22/136/8 23/50/8
f 19/52/3 23/137/3 24/53/3
f 30/11/5 29/11/5 33/11/5
f 3/11/5 7/11/5 29/11/5
f 28/55/9 42/138/9 43/56/9
f 1/11/5 26/11/5 27/11/5
f 7/11/5 25/11/5 31/11/5
f 26/11/5 3/11/5 30/11/5
f 5/11/5 1/11/5 28/11/5
f 35/58/10 36/139/10 40/59/10
f 31/11/5 27/11/5 36/11/5
f 29/11/5 31/11/5 35/11/5
f 27/11/5 30/11/5 34/11/5
f 37/61/7 39/140/7 40/62/7
f 33/64/11 37/141/11 38/65/11
f 34/67/12 38/142/12 40/68/12
f 35/70/13 39/143/13 37/71/13
f 44/73/7 43/144/7 42/74/7
f 31/76/13 32/145/13 43/77/13
f 31/79/14 44/146/14 41/80/14
f 27/82/12 41/147/12 42/83/12
f 46/85/6 45/148/6 1/86/6
f 47/88/8 48/149/8 7/89/8
f 51/91/6 50/150/6 49/92/6
f 46/94/15 57/151/15 58/95/15
f 2/20/5 50/152/5 51/97/5
f 6/98/16 51/153/16 52/99/16
f 53/100/8 54/154/8 56/101/8
f 56/101/15 64/155/15 63/103/15
f 4/104/17 53/156/17 55/105/17
f 8/14/5 54/157/5 53/106/5
f 57/107/7 59/158/7 60/108/7
f 49/92/18 60/159/18 59/110/18
f 52/99/22 59/160/22 57/111/22
f 49/112/23 45/1/23 58/113/23
f 61/115/7 63/161/7 64/116/7
f 55/105/20 63/162/20 61/118/20
f 56/119/24 48/4/24 62/120/24
f 47/122/18 61/163/18 62/123/18
